<mxfile host="app.diagrams.net" modified="2023-11-21T16:09:44.770Z" agent="Mozilla/5.0 (Windows NT 10.0; Win64; x64) AppleWebKit/537.36 (KHTML, like Gecko) Chrome/119.0.0.0 Safari/537.36" etag="p_CsRT6FdFDRcq5yKqwT" version="22.1.3" type="github">
  <diagram name="Page-1" id="lfn5ZAQ8hsB1twAiaaxd">
    <mxGraphModel dx="794" dy="424" grid="1" gridSize="10" guides="1" tooltips="1" connect="1" arrows="1" fold="1" page="1" pageScale="1" pageWidth="850" pageHeight="1100" math="0" shadow="0">
      <root>
        <mxCell id="0" />
        <mxCell id="1" parent="0" />
        <mxCell id="KA6sO3sFNKFK0WLOKIiQ-7" value="" style="edgeStyle=orthogonalEdgeStyle;rounded=0;orthogonalLoop=1;jettySize=auto;html=1;" edge="1" parent="1" target="KA6sO3sFNKFK0WLOKIiQ-6">
          <mxGeometry relative="1" as="geometry">
            <mxPoint x="355" y="360" as="sourcePoint" />
          </mxGeometry>
        </mxCell>
        <mxCell id="KA6sO3sFNKFK0WLOKIiQ-5" value="" style="strokeWidth=2;html=1;shape=mxgraph.flowchart.start_2;whiteSpace=wrap;" vertex="1" parent="1">
          <mxGeometry x="310" y="350" width="60" height="70" as="geometry" />
        </mxCell>
        <mxCell id="KA6sO3sFNKFK0WLOKIiQ-6" value="" style="ellipse;whiteSpace=wrap;html=1;strokeWidth=2;" vertex="1" parent="1">
          <mxGeometry x="320" y="355" width="40" height="55" as="geometry" />
        </mxCell>
        <mxCell id="KA6sO3sFNKFK0WLOKIiQ-8" style="edgeStyle=orthogonalEdgeStyle;rounded=0;orthogonalLoop=1;jettySize=auto;html=1;exitX=1;exitY=0.5;exitDx=0;exitDy=0;exitPerimeter=0;entryX=1.041;entryY=0.6;entryDx=0;entryDy=0;entryPerimeter=0;" edge="1" parent="1" source="KA6sO3sFNKFK0WLOKIiQ-5" target="KA6sO3sFNKFK0WLOKIiQ-6">
          <mxGeometry relative="1" as="geometry" />
        </mxCell>
      </root>
    </mxGraphModel>
  </diagram>
</mxfile>
